<svg width="14" height="16" viewBox="0 0 14 16" fill="none" xmlns="http://www.w3.org/2000/svg">
<path fill-rule="evenodd" clip-rule="evenodd" d="M0 6.73894C0 4.95166 0.737499 3.23759 2.05025 1.97379C3.36301 0.709994 5.14348 0 7 0C8.85652 0 10.637 0.709994 11.9497 1.97379C13.2625 3.23759 14 4.95166 14 6.73894C13.9761 8.55185 13.3302 10.3063 12.1627 11.7289C10.8968 13.3299 9.35334 14.7085 7.60036 15.804C7.42791 15.9311 7.21677 16 6.99959 16C6.7824 16 6.57127 15.9311 6.39883 15.804C4.6417 14.7136 3.0974 13.3342 1.83647 11.7289C0.669245 10.3062 0.0235647 8.55177 0 6.73894ZM4.68918 6.94428C4.70526 7.52401 4.95577 8.07481 5.38738 8.47937C5.81899 8.88394 6.3976 9.11033 7 9.11033C7.6024 9.11033 8.18101 8.88394 8.61262 8.47937C9.04423 8.07481 9.29475 7.52401 9.31082 6.94428C9.31082 6.35427 9.06737 5.78843 8.634 5.37123C8.20064 4.95403 7.61287 4.71964 7 4.71964C6.38713 4.71964 5.79936 4.95403 5.366 5.37123C4.93263 5.78843 4.68918 6.35427 4.68918 6.94428Z" fill="#50BF97"/>
</svg>
